<?xml version="1.0" encoding="UTF-8"?><svg id="_イヤー_2" xmlns="http://www.w3.org/2000/svg" viewBox="0 0 1208.8 375"><defs><style>.cls-1,.cls-2,.cls-3,.cls-4,.cls-5{stroke:#5a2462;}.cls-1,.cls-2,.cls-3,.cls-6,.cls-5{fill:#5a2462;}.cls-1,.cls-3{stroke-linecap:round;stroke-linejoin:round;}.cls-2,.cls-4,.cls-5{stroke-miterlimit:10;}.cls-3,.cls-5{stroke-width:.5px;}.cls-4{fill:#5e2566;}</style></defs><g id="_イヤー_1-2"><g><path class="cls-1" d="M187.5,27.5c42.74,0,82.92,16.64,113.14,46.86,30.22,30.22,46.86,70.4,46.86,113.14s-16.64,82.92-46.86,113.14c-30.22,30.22-70.4,46.86-113.14,46.86-31.6,0-62.15-9.19-88.35-26.58-25.58-16.98-45.65-40.74-58.04-68.72-3.11-7.03-5.69-14.21-7.74-21.54l-21.21,21.83c1.23,3.26,2.87,7.47,4.27,10.64,29.05,65.6,94.71,111.36,171.07,111.36,103.28,0,187-83.72,187-187S290.78,.5,187.5,.5h0C84.22,.5,.5,84.22,.5,187.5c0,9.06,.64,17.96,1.89,26.67l25.2-21.15c-.06-1.84-.09-3.68-.09-5.53,0-42.74,16.64-82.92,46.86-113.14S144.76,27.5,187.5,27.5"/><path class="cls-5" d="M33.16,230.5l72.71-69.76c.72-.69,1.86-.69,2.58,0l66.71,64.75,75-74h-24c-9,0-8-8-8-8v-16c0-9,8-8,9-8h72.38c.9,0,1.62,.73,1.62,1.62v77.38c0,5-2,7-5,7h-16c-3.87,0-7-3.13-7-7v-27s-93,92-95,94-3,1-5-1-67-65-67-65l-64,65-9-34Z"/><path class="cls-4" d="M558.16,157.5v94h28v-40c0-12,10-31,39-32v-24s-26-3-39,18v-16h-28Z"/><path class="cls-2" d="M735.18,204.5c0,27.07-21.95,49.02-49.02,49.02s-49.02-21.95-49.02-49.02,21.95-49.02,49.02-49.02,49.02,21.95,49.02,49.02Zm-49.02-24.13c-13.33,0-24.13,10.8-24.13,24.13s10.8,24.13,24.13,24.13,24.13-10.8,24.13-24.13-10.8-24.13-24.13-24.13Z"/><g><path class="cls-6" d="M1064.78,252.07c-26.23,0-47.57-21.34-47.57-47.57s21.34-47.57,47.57-47.57c12.98,0,25.23,5.07,33.63,13.92,1.1,1.16,3.88,4.29,4.95,5.49l-19.43,9.87c-4.78-4.65-11.08-7.21-17.77-7.21-14.06,0-25.49,11.44-25.49,25.49s11.44,25.49,25.49,25.49c7.52,0,14.58-3.28,19.44-9.01l18.81,9.69-2.89,4.03c-9.06,11.02-22.46,17.36-36.75,17.36Z"/><path class="cls-6" d="M1064.78,157.43c12.84,0,24.97,5.02,33.27,13.77,.97,1.02,3.25,3.59,4.51,5l-18.54,9.42c-4.84-4.59-11.16-7.1-17.86-7.1-14.33,0-25.99,11.66-25.99,25.99s11.66,25.99,25.99,25.99c7.54,0,14.62-3.23,19.57-8.88l17.95,9.25-2.53,3.53c-8.99,10.92-22.24,17.18-36.36,17.18-25.95,0-47.07-21.12-47.07-47.07s21.12-47.07,47.07-47.07m0-1c-26.55,0-48.07,21.52-48.07,48.07s21.52,48.07,48.07,48.07c14.97,0,28.34-6.84,37.16-17.57l3.22-4.5-19.68-10.14c-4.58,5.58-11.53,9.13-19.32,9.13-13.8,0-24.99-11.19-24.99-24.99s11.19-24.99,24.99-24.99c6.9,0,13.15,2.8,17.67,7.32l20.33-10.33s-4-4.53-5.39-5.99c-8.47-8.93-20.72-14.08-33.99-14.08h0Z"/></g><path class="cls-3" d="M948.57,251.73c-25.41,.4-46.02-19.95-46.02-47.02s21.95-49.02,49.02-49.02c0,0,13.59-.19,20.59,6.81l7-6h21v95h-21l-8-6s-8,6-22.59,6.23Zm2.59-71.36c-13.33,0-24.13,10.8-24.13,24.13s10.8,24.13,24.13,24.13,24.13-10.8,24.13-24.13-10.8-24.13-24.13-24.13Z"/><rect class="cls-3" x="858.16" y="122.5" width="29" height="129"/><path class="cls-3" d="M1208.16,213.5h-68s4,16,21,16c0,0,13,1,25-4l15,12s-13,16-34,16c-25,0-55-16-55-51,0-28.02,25-47,51-47,20,0,37.37,15.18,42,30,5,16,3,28,3,28Zm-46-35c-16,0-22,16-22,16h43s-4-16-21-16Z"/><g><path class="cls-6" d="M753.66,251V123.99c2.78-.03,16.76-.17,30.46-.17,8.94,0,16.02,.06,21.02,.18,23.21,.54,34.45,22.5,34.56,22.72,2.14,4.28,8.87,24.77,.02,39.52-8.29,13.82-25.4,22.76-43.57,22.76h-17.5v42h-25Zm33.85-102.46c-4.84,0-8.38,.46-8.42,.46l-.43,.06v36.88l.43,.06s3.58,.46,8.42,.46h0c5.34,0,13.01-.57,19.22-3.26,7.25-3.15,10.93-8.43,10.93-15.7,0-16.5-18.89-18.96-30.15-18.96Z"/><path class="cls-6" d="M784.13,124.32c8.93,0,16,.06,21.01,.18,22.91,.53,34.02,22.23,34.13,22.45,1.75,3.51,8.82,24.41,.04,39.04-8.21,13.68-25.14,22.51-43.14,22.51h-18v42h-24V124.49c3.67-.04,16.94-.17,29.97-.17h0m3.38,62.63c11.45,0,30.65-2.53,30.65-19.46s-19.2-19.46-30.65-19.46c-4.87,0-8.34,.45-8.48,.47l-.87,.11v37.75l.87,.11c.15,.02,3.61,.47,8.48,.47m-3.39-63.63c-15.41,0-30.96,.18-30.96,.18V251.5h26v-42h17c17,0,35-8,44-23s2-36,0-40-13.5-22.5-35-23c-5.67-.13-13.33-.18-21.04-.18h0Zm3.39,62.63c-4.86,0-8.35-.46-8.35-.46v-36s3.49-.46,8.35-.46c11.19,0,29.65,2.43,29.65,18.46s-18.46,18.46-29.65,18.46h0Z"/></g><g><path class="cls-6" d="M452.66,251V123.99c2.78-.03,16.76-.17,30.46-.17,8.94,0,16.02,.06,21.02,.18,23.21,.54,34.45,22.5,34.56,22.72,2.14,4.28,8.87,24.77,.02,39.52-8.29,13.82-25.4,22.76-43.57,22.76h-17.5v42h-25Zm33.85-102.46c-4.84,0-8.38,.46-8.42,.46l-.43,.06v36.88l.44,.06s3.58,.46,8.42,.46h0c5.34,0,13.01-.57,19.22-3.26,7.25-3.15,10.93-8.43,10.93-15.7,0-16.5-18.89-18.96-30.15-18.96Z"/><path class="cls-6" d="M483.13,124.32c8.93,0,16,.06,21.01,.18,22.91,.53,34.02,22.23,34.13,22.45,1.75,3.51,8.82,24.41,.04,39.04-8.21,13.68-25.14,22.51-43.14,22.51h-18v42h-24V124.49c3.67-.04,16.94-.17,29.97-.17h0m3.38,62.63c11.45,0,30.65-2.53,30.65-19.46s-19.2-19.46-30.65-19.46c-4.87,0-8.34,.45-8.48,.47l-.87,.11v37.75l.87,.11c.15,.02,3.61,.47,8.48,.47m-3.39-63.63c-15.41,0-30.97,.18-30.97,.18V251.5h26v-42h17c17,0,35-8,44-23s2-36,0-40-13.5-22.5-35-23c-5.67-.13-13.33-.18-21.03-.18h0Zm3.39,62.63c-4.86,0-8.35-.46-8.35-.46v-36s3.49-.46,8.35-.46c11.19,0,29.65,2.43,29.65,18.46s-18.46,18.46-29.65,18.46h0Z"/></g></g></g></svg>